<?xml version="1.0" encoding="UTF-8"?>
<svg width="40px" height="48px" viewBox="0 0 40 48" version="1.1" xmlns="http://www.w3.org/2000/svg" xmlns:xlink="http://www.w3.org/1999/xlink">
    <!-- Generator: Sketch 49.3 (51167) - http://www.bohemiancoding.com/sketch -->
    <title>Group 4</title>
    <desc>Created with Sketch.</desc>
    <defs></defs>
    <g id="Page-1" stroke="none" stroke-width="1" fill="none" fill-rule="evenodd">
        <g id="Home-page" transform="translate(-906.000000, -1789.000000)">
            <g id="Group-4" transform="translate(902.000000, 1789.000000)">
                <rect id="Rectangle-11" opacity="0.200000003" x="0" y="0" width="48" height="48"></rect>
                <path d="M43.5294118,35.1818086 C43.468523,35.3638776 42.5156136,38.6502239 40.1744399,42.0306392 C38.1468436,44.9467784 36.0492251,47.8871934 32.7399198,47.9387797 C29.4823701,47.9964349 28.4411719,46.0179513 24.7239118,46.0179513 C21.0127406,46.0179513 19.8467205,47.8871935 16.7687926,47.9964349 C13.5873538,48.1238832 11.1365803,44.8102266 9.10593951,41.9092598 C4.94419131,35.9647055 1.74448588,25.0648386 6.03714492,17.7608354 C8.15303005,14.1042821 11.9494455,11.7829017 16.0837938,11.7161431 C19.2012993,11.6584879 22.166583,13.8038681 24.0602241,13.8038681 C26.0056206,13.8038681 29.5919698,11.2093842 33.3762076,11.5977982 C34.9593159,11.6645569 39.3920191,12.2502123 42.2477029,16.3437313 C42.0254589,16.4954555 36.9442901,19.457112 37.0021345,25.4896664 C37.0782455,32.7693937 43.4624342,35.1575327 43.5294118,35.1818086 M30.9010786,7.69545168 C32.6059645,5.63807147 33.7293625,2.80993231 33.4340519,0 C30.9985007,0.0940690065 28.0271282,1.59917311 26.264398,3.64744987 C24.7026007,5.43172651 23.3295587,8.30538293 23.713158,11.0819359 C26.4196643,11.2427636 29.2022816,9.68000427 30.8980342,7.69545168" id="Shape" fill="#A4BFF0" fill-rule="nonzero"></path>
            </g>
        </g>
    </g>
</svg>