<?xml version="1.0" encoding="UTF-8"?>
<svg width="40px" height="48px" viewBox="0 0 40 48" version="1.1" xmlns="http://www.w3.org/2000/svg" >
    <title>Group 4</title>
    <desc>Created with Sketch.</desc>
    <defs></defs>
    <g id="Page-1" stroke="none" stroke-width="1" fill="none" fill-rule="evenodd">
        <g id="Home-page" transform="translate(-992.000000, -1789.000000)">
            <g id="Group-4" transform="translate(988.000000, 1789.000000)">
                <rect id="Rectangle-11" opacity="0.200000003" x="0" y="0" width="48" height="48"></rect>
                <path d="M40.4705297,32.6715723 C38.9963221,32.6715723 37.8025979,31.421894 37.8025979,29.883789 L37.8025979,17.96147 C37.8025979,16.4212032 38.9963221,15.1736867 40.4705297,15.1736867 C41.9447373,15.1736867 43.1384615,16.4212032 43.1384615,17.96147 L43.1384615,29.883789 C43.1384615,31.421894 41.9447373,32.6715723 40.4705297,32.6715723 Z M33.2059894,38.5551923 L31.1729667,38.5551923 C31.2403416,38.8020901 31.2795209,39.0598536 31.2795209,39.3285968 L31.2795209,45.2122167 C31.2795209,46.7524835 30.0835886,48 28.6094376,48 C27.1373815,48 25.9414492,46.7524835 25.9414492,45.2122167 L25.9414492,39.3285968 C25.9414492,39.0598536 25.9805719,38.8020901 26.0480034,38.5551923 L21.0904581,38.5551923 C21.157833,38.8020901 21.1991638,39.0598536 21.1991638,39.3285968 L21.1991638,45.2122167 C21.1991638,46.7524835 20.0032881,48 18.5290805,48 C17.0548729,48 15.8589972,46.7524835 15.8589972,45.2122167 L15.8589972,39.3285968 C15.8589972,39.0598536 15.8980633,38.8020901 15.9654948,38.5551923 L13.9324721,38.5551923 C12.3800191,38.5551923 11.1166552,37.2355975 11.1166552,35.6123298 L11.1166552,15.1736867 L36.0218063,15.1736867 L36.0218063,35.612273 C36.0218063,37.2355975 34.7606505,38.5551923 33.2059894,38.5551923 Z M17.4462134,4.02039174 L16.9461106,3.23384591 L16.4503674,2.46044141 L15.3414563,0.721347963 C15.2066499,0.509436838 15.2610593,0.221067041 15.4654487,0.0790723649 C15.669838,-0.065140978 15.9459051,-0.00614719631 16.0829196,0.207925707 L17.2722843,2.07160583 L17.7723871,2.85371433 L18.2790008,3.64674549 C19.8858633,2.99792767 21.6775254,2.63304231 23.5692308,2.63304231 C25.4609361,2.63304231 27.2547497,2.99792767 28.8616122,3.64680238 L29.3682259,2.85371433 L29.8683287,2.07154894 L31.05775,0.207925707 C31.1924998,-0.00614719631 31.4686802,-0.065140978 31.6752209,0.079015476 C31.8774588,0.221067041 31.9339631,0.509436838 31.7970053,0.721347963 L30.6880941,2.46044141 L30.1945024,3.23384591 L29.6922481,4.02039174 C33.4690912,5.85562742 36.0218063,9.33381431 36.0218063,13.3166057 L11.1166552,13.3166057 C11.1166552,9.33381431 13.6715218,5.85562742 17.4462134,4.02039174 Z M28.9073025,9.60033878 C29.6444063,9.60033878 30.2401361,8.97547118 30.2401361,8.20644713 C30.2401361,7.43736619 29.6444063,6.81471726 28.9073025,6.81471726 C28.1701421,6.81471726 27.5722609,7.43736619 27.5722609,8.20644713 C27.5722609,8.97547118 28.1701421,9.60033878 28.9073025,9.60033878 Z M18.2333671,9.60033878 C18.9704709,9.60033878 19.5662573,8.97547118 19.5662573,8.20644713 C19.5662573,7.43736619 18.9704709,6.81471726 18.2333671,6.81471726 C17.4962067,6.81471726 16.8983254,7.43736619 16.8983254,8.20644713 C16.8983254,8.97547118 17.4962067,9.60033878 18.2333671,9.60033878 Z M6.66793184,32.6715723 C5.19372427,32.6715723 4,31.4218371 4,29.8837321 L4,17.96147 C4,16.4212032 5.19372427,15.1736867 6.66793184,15.1736867 C8.14213941,15.1736867 9.33801514,16.4212032 9.33801514,17.96147 L9.33801514,29.883789 C9.33801514,31.421894 8.14213941,32.6715723 6.66793184,32.6715723 Z" id="Shape" fill="#A4BFF0" fill-rule="nonzero"></path>
            </g>
        </g>
    </g>
</svg>